# xmcd
#
# Track frame offsets:
#  150
#  8768
#  16863
#  26633
#  36643
#  47963
#  57745
#  66597
#  76052
#  83770
#  95345
#  107647
#
# Disc length: 1546 seconds
#
# Revision: 0
# Processed by: cddbd v1.5.1PL0 Copyright (c) Steve Scherf et al.
# Submitted via: Collectorz.com_Music_Collector 6.9
#
DISCID=9906080c
DTITLE=Johnny Cash - Songs Of Our Soil
DYEAR=1959
DGENRE=Traditional Country
TTITLE0=Drink To Me
TTITLE1=Five Feet High And Rising
TTITLE2=The Man On The Hill
TTITLE3=Hank And Joe And Me
TTITLE4=Clementine
TTITLE5=The Great Speckled Bird
TTITLE6=I Want To Go Home
TTITLE7=The Caretaker
TTITLE8=Old Apache Squaw
TTITLE9=Don't Step On Mother's Roses
TTITLE10=My Grandfather's Clock
TTITLE11=It Could Be You (Instead Of Him)
EXTD=
EXTT0=
EXTT1=
EXTT2=
EXTT3=
EXTT4=
EXTT5=
EXTT6=
EXTT7=
EXTT8=
EXTT9=
EXTT10=
EXTT11=
PLAYORDER=
